<mxfile host="app.diagrams.net" modified="2024-10-02T14:53:11.425Z" agent="Mozilla/5.0 (Windows NT 10.0; Win64; x64) AppleWebKit/537.36 (KHTML, like Gecko) Chrome/129.0.0.0 Safari/537.36" version="22.1.21" etag="hz2-lxxNr6Dt0frLbmAz" type="github">
  <diagram name="Page-1" id="HrnpiISQV5BwWjIOTgDZ">
    <mxGraphModel>
      <root>
        <mxCell id="0" />
        <mxCell id="1" parent="0" />
      </root>
    </mxGraphModel>
  </diagram>
</mxfile>
